<svg width="42" height="42" viewBox="0 0 42 42" fill="none" xmlns="http://www.w3.org/2000/svg">
<path d="M24.9585 27.0166H16.2085M20.5835 22.7466V31.4966" stroke="white" stroke-width="1.5" stroke-miterlimit="10" stroke-linecap="round" stroke-linejoin="round"/>
<path d="M22.1549 4.40674L22.1024 4.52924L17.0274 16.3067H12.0399C10.8499 16.3067 9.71243 16.5517 8.67993 16.9892L11.7424 9.67424L11.8124 9.49924L11.9349 9.21924C11.9699 9.11424 12.0049 9.00924 12.0574 8.92174C14.3499 3.61924 16.9399 2.41174 22.1549 4.40674V4.40674Z" stroke="white" stroke-width="1.5" stroke-linecap="round" stroke-linejoin="round"/>
<path d="M31.5876 16.6567C30.8001 16.4117 29.9601 16.3067 29.1201 16.3067H17.0276L22.1026 4.52924L22.1551 4.40674C22.4176 4.49424 22.6626 4.61674 22.9251 4.72174L26.7926 6.34924C28.9451 7.24174 30.4501 8.16924 31.3601 9.28924C31.5351 9.49924 31.6751 9.69174 31.7976 9.91924C31.9551 10.1642 32.0776 10.4092 32.1476 10.6717C32.2176 10.8292 32.2701 10.9867 32.3051 11.1267C32.7776 12.5967 32.4976 14.3992 31.5876 16.6567V16.6567Z" stroke="white" stroke-width="1.5" stroke-linecap="round" stroke-linejoin="round"/>
<path d="M37.6635 24.8466V28.2591C37.6635 28.6091 37.646 28.9591 37.6285 29.3091C37.296 35.4166 33.8835 38.4966 27.4085 38.4966H13.7585C13.3385 38.4966 12.9185 38.4616 12.516 38.4091C6.951 38.0416 3.976 35.0666 3.6085 29.5016C3.556 29.0991 3.521 28.6791 3.521 28.2591V24.8466C3.521 21.3291 5.656 18.3016 8.701 16.9891C9.751 16.5516 10.871 16.3066 12.061 16.3066H29.141C29.9985 16.3066 30.8385 16.4291 31.6085 16.6566C35.091 17.7241 37.6635 20.9791 37.6635 24.8466V24.8466Z" stroke="white" stroke-width="1.5" stroke-linecap="round" stroke-linejoin="round"/>
<path d="M11.7425 9.67383L8.68 16.9888C7.14369 17.6497 5.83451 18.746 4.91399 20.1423C3.99348 21.5386 3.50193 23.1739 3.5 24.8463V19.7188C3.5 14.7488 7.035 10.6013 11.7425 9.67383V9.67383ZM37.6582 19.7188V24.8463C37.6582 20.9963 35.1033 17.7238 31.6033 16.6738C32.5132 14.3988 32.7758 12.6138 32.3383 11.1263C32.3033 10.9688 32.2507 10.8113 32.1807 10.6713C35.4357 12.3513 37.6582 15.7988 37.6582 19.7188Z" stroke="white" stroke-width="1.5" stroke-linecap="round" stroke-linejoin="round"/>
</svg>
