<svg width="44" height="45" viewBox="0 0 44 45" fill="none" xmlns="http://www.w3.org/2000/svg">
<path d="M31.8878 5.34265C36.1482 5.34265 39.5741 8.7504 39.5741 12.9395C39.5741 17.0419 36.28 20.3845 32.1733 20.5364C31.9836 20.5147 31.7921 20.5147 31.6024 20.5364M36.1263 40.0713C37.7075 39.7457 39.2008 39.1163 40.4306 38.1829C43.8565 35.6434 43.8565 31.4543 40.4306 28.9147C39.2227 28.0031 37.7514 27.3954 36.1922 27.0481M15.9663 20.2543C15.7467 20.2326 15.4831 20.2326 15.2416 20.2543C12.7209 20.1697 10.3325 19.1187 8.58225 17.324C6.83194 15.5292 5.85716 13.1315 5.86431 10.6388C5.86431 5.32095 10.2125 1.00157 15.6149 1.00157C18.198 0.955515 20.6938 1.92555 22.5533 3.69828C24.4128 5.471 25.4836 7.90121 25.5302 10.4543C25.5768 13.0073 24.5953 15.4741 22.8018 17.312C21.0082 19.1499 18.5494 20.2082 15.9663 20.2543ZM4.98588 28.2636C-0.328628 31.7799 -0.328628 37.5101 4.98588 41.0047C11.0251 44.9985 20.9294 44.9985 26.9686 41.0047C32.2831 37.4884 32.2831 31.7581 26.9686 28.2636C20.9514 24.2915 11.0471 24.2915 4.98588 28.2636V28.2636Z" stroke="white" stroke-width="1.5" stroke-linecap="round" stroke-linejoin="round"/>
</svg>
